<svg xmlns="http://www.w3.org/2000/svg" xmlns:xlink="http://www.w3.org/1999/xlink" contentstyletype="text/css" height="910px" preserveAspectRatio="none" style="width:851px;height:910px;background:#FFFFFF;" version="1.1" viewBox="0 0 851 910" width="851px" zoomAndPan="magnify"><defs></defs><g><line style="stroke:#181818;stroke-width:0.5;stroke-dasharray:5.0,5.0;" x1="35" x2="35" y1="81.2969" y2="829.6172"></line><line style="stroke:#181818;stroke-width:0.5;stroke-dasharray:5.0,5.0;" x1="246.8633" x2="246.8633" y1="81.2969" y2="829.6172"></line><line style="stroke:#181818;stroke-width:0.5;stroke-dasharray:5.0,5.0;" x1="419.7881" x2="419.7881" y1="81.2969" y2="829.6172"></line><line style="stroke:#181818;stroke-width:0.5;stroke-dasharray:5.0,5.0;" x1="649.5625" x2="649.5625" y1="81.2969" y2="829.6172"></line><line style="stroke:#181818;stroke-width:0.5;stroke-dasharray:5.0,5.0;" x1="746.3633" x2="746.3633" y1="81.2969" y2="829.6172"></line><line style="stroke:#181818;stroke-width:0.5;stroke-dasharray:5.0,5.0;" x1="826.585" x2="826.585" y1="81.2969" y2="829.6172"></line><text fill="#000000" font-family="sans-serif" font-size="14" lengthAdjust="spacing" textLength="55.1113" x="5" y="77.9951">Student</text><ellipse cx="35.5557" cy="13.5" fill="#E2E2F0" rx="8" ry="8" style="stroke:#181818;stroke-width:0.5;"></ellipse><path d="M35.5557,21.5 L35.5557,48.5 M22.5557,29.5 L48.5557,29.5 M35.5557,48.5 L22.5557,63.5 M35.5557,48.5 L48.5557,63.5 " fill="none" style="stroke:#181818;stroke-width:0.5;"></path><text fill="#000000" font-family="sans-serif" font-size="14" lengthAdjust="spacing" textLength="55.1113" x="5" y="841.6123">Student</text><ellipse cx="35.5557" cy="853.4141" fill="#E2E2F0" rx="8" ry="8" style="stroke:#181818;stroke-width:0.5;"></ellipse><path d="M35.5557,861.4141 L35.5557,888.4141 M22.5557,869.4141 L48.5557,869.4141 M35.5557,888.4141 L22.5557,903.4141 M35.5557,888.4141 L48.5557,903.4141 " fill="none" style="stroke:#181818;stroke-width:0.5;"></path><rect fill="#ADD8E6" height="30.2969" rx="2.5" ry="2.5" style="stroke:#181818;stroke-width:0.5;" width="71.0391" x="211.8633" y="50"></rect><text fill="#000000" font-family="sans-serif" font-size="14" lengthAdjust="spacing" textLength="57.0391" x="218.8633" y="69.9951">Browser</text><rect fill="#ADD8E6" height="30.2969" rx="2.5" ry="2.5" style="stroke:#181818;stroke-width:0.5;" width="71.0391" x="211.8633" y="828.6172"></rect><text fill="#000000" font-family="sans-serif" font-size="14" lengthAdjust="spacing" textLength="57.0391" x="218.8633" y="848.6123">Browser</text><rect fill="#ADD8E6" height="30.2969" rx="2.5" ry="2.5" style="stroke:#181818;stroke-width:0.5;" width="59.9102" x="390.7881" y="50"></rect><text fill="#000000" font-family="sans-serif" font-size="14" lengthAdjust="spacing" textLength="45.9102" x="397.7881" y="69.9951">Server</text><rect fill="#ADD8E6" height="30.2969" rx="2.5" ry="2.5" style="stroke:#181818;stroke-width:0.5;" width="59.9102" x="390.7881" y="828.6172"></rect><text fill="#000000" font-family="sans-serif" font-size="14" lengthAdjust="spacing" textLength="45.9102" x="397.7881" y="848.6123">Server</text><rect fill="#ADD8E6" height="30.2969" rx="2.5" ry="2.5" style="stroke:#181818;stroke-width:0.5;" width="80.8008" x="609.5625" y="50"></rect><text fill="#000000" font-family="sans-serif" font-size="14" lengthAdjust="spacing" textLength="66.8008" x="616.5625" y="69.9951">Database</text><rect fill="#ADD8E6" height="30.2969" rx="2.5" ry="2.5" style="stroke:#181818;stroke-width:0.5;" width="80.8008" x="609.5625" y="828.6172"></rect><text fill="#000000" font-family="sans-serif" font-size="14" lengthAdjust="spacing" textLength="66.8008" x="616.5625" y="848.6123">Database</text><rect fill="#ADD8E6" height="30.2969" rx="2.5" ry="2.5" style="stroke:#181818;stroke-width:0.5;" width="93.2217" x="700.3633" y="50"></rect><text fill="#000000" font-family="sans-serif" font-size="14" lengthAdjust="spacing" textLength="79.2217" x="707.3633" y="69.9951">FileStorage</text><rect fill="#ADD8E6" height="30.2969" rx="2.5" ry="2.5" style="stroke:#181818;stroke-width:0.5;" width="93.2217" x="700.3633" y="828.6172"></rect><text fill="#000000" font-family="sans-serif" font-size="14" lengthAdjust="spacing" textLength="79.2217" x="707.3633" y="848.6123">FileStorage</text><text fill="#000000" font-family="sans-serif" font-size="14" lengthAdjust="spacing" textLength="40.5303" x="803.585" y="77.9951">Client</text><ellipse cx="826.8501" cy="13.5" fill="#E2E2F0" rx="8" ry="8" style="stroke:#181818;stroke-width:0.5;"></ellipse><path d="M826.8501,21.5 L826.8501,48.5 M813.8501,29.5 L839.8501,29.5 M826.8501,48.5 L813.8501,63.5 M826.8501,48.5 L839.8501,63.5 " fill="none" style="stroke:#181818;stroke-width:0.5;"></path><text fill="#000000" font-family="sans-serif" font-size="14" lengthAdjust="spacing" textLength="40.5303" x="803.585" y="841.6123">Client</text><ellipse cx="826.8501" cy="853.4141" fill="#E2E2F0" rx="8" ry="8" style="stroke:#181818;stroke-width:0.5;"></ellipse><path d="M826.8501,861.4141 L826.8501,888.4141 M813.8501,869.4141 L839.8501,869.4141 M826.8501,888.4141 L813.8501,903.4141 M826.8501,888.4141 L839.8501,903.4141 " fill="none" style="stroke:#181818;stroke-width:0.5;"></path><polygon fill="#181818" points="235.3828,108.4297,245.3828,112.4297,235.3828,116.4297,239.3828,112.4297" style="stroke:#181818;stroke-width:1.0;"></polygon><line style="stroke:#181818;stroke-width:1.0;" x1="35.5557" x2="241.3828" y1="112.4297" y2="112.4297"></line><text fill="#000000" font-family="sans-serif" font-size="13" lengthAdjust="spacing" textLength="187.8271" x="42.5557" y="107.3638">Login and navigate to orders</text><polygon fill="#181818" points="408.7432,137.5625,418.7432,141.5625,408.7432,145.5625,412.7432,141.5625" style="stroke:#181818;stroke-width:1.0;"></polygon><line style="stroke:#181818;stroke-width:1.0;" x1="247.3828" x2="414.7432" y1="141.5625" y2="141.5625"></line><text fill="#000000" font-family="sans-serif" font-size="13" lengthAdjust="spacing" textLength="122.7954" x="254.3828" y="136.4966">Get student orders</text><polygon fill="#181818" points="637.9629,166.6953,647.9629,170.6953,637.9629,174.6953,641.9629,170.6953" style="stroke:#181818;stroke-width:1.0;"></polygon><line style="stroke:#181818;stroke-width:1.0;" x1="420.7432" x2="643.9629" y1="170.6953" y2="170.6953"></line><text fill="#000000" font-family="sans-serif" font-size="13" lengthAdjust="spacing" textLength="122.7954" x="427.7432" y="165.6294">Get student orders</text><polygon fill="#181818" points="431.7432,195.8281,421.7432,199.8281,431.7432,203.8281,427.7432,199.8281" style="stroke:#181818;stroke-width:1.0;"></polygon><line style="stroke:#181818;stroke-width:1.0;stroke-dasharray:2.0,2.0;" x1="425.7432" x2="648.9629" y1="199.8281" y2="199.8281"></line><text fill="#000000" font-family="sans-serif" font-size="13" lengthAdjust="spacing" textLength="60.3979" x="437.7432" y="194.7622">Order list</text><polygon fill="#181818" points="258.3828,224.9609,248.3828,228.9609,258.3828,232.9609,254.3828,228.9609" style="stroke:#181818;stroke-width:1.0;"></polygon><line style="stroke:#181818;stroke-width:1.0;stroke-dasharray:2.0,2.0;" x1="252.3828" x2="419.7432" y1="228.9609" y2="228.9609"></line><text fill="#000000" font-family="sans-serif" font-size="13" lengthAdjust="spacing" textLength="60.3979" x="264.3828" y="223.895">Order list</text><polygon fill="#181818" points="46.5557,254.0938,36.5557,258.0938,46.5557,262.0938,42.5557,258.0938" style="stroke:#181818;stroke-width:1.0;"></polygon><line style="stroke:#181818;stroke-width:1.0;stroke-dasharray:2.0,2.0;" x1="40.5557" x2="246.3828" y1="258.0938" y2="258.0938"></line><text fill="#000000" font-family="sans-serif" font-size="13" lengthAdjust="spacing" textLength="137.3633" x="52.5557" y="253.0278">Display active orders</text><polygon fill="#181818" points="235.3828,283.2266,245.3828,287.2266,235.3828,291.2266,239.3828,287.2266" style="stroke:#181818;stroke-width:1.0;"></polygon><line style="stroke:#181818;stroke-width:1.0;" x1="35.5557" x2="241.3828" y1="287.2266" y2="287.2266"></line><text fill="#000000" font-family="sans-serif" font-size="13" lengthAdjust="spacing" textLength="76.9336" x="42.5557" y="282.1606">View orders</text><polygon fill="#181818" points="408.7432,312.3594,418.7432,316.3594,408.7432,320.3594,412.7432,316.3594" style="stroke:#181818;stroke-width:1.0;"></polygon><line style="stroke:#181818;stroke-width:1.0;" x1="247.3828" x2="414.7432" y1="316.3594" y2="316.3594"></line><text fill="#000000" font-family="sans-serif" font-size="13" lengthAdjust="spacing" textLength="144.9551" x="254.3828" y="311.2935">Select order to deliver</text><polygon fill="#181818" points="637.9629,341.4922,647.9629,345.4922,637.9629,349.4922,641.9629,345.4922" style="stroke:#181818;stroke-width:1.0;"></polygon><line style="stroke:#181818;stroke-width:1.0;" x1="420.7432" x2="643.9629" y1="345.4922" y2="345.4922"></line><text fill="#000000" font-family="sans-serif" font-size="13" lengthAdjust="spacing" textLength="109.6367" x="427.7432" y="340.4263">Get order details</text><polygon fill="#181818" points="431.7432,370.625,421.7432,374.625,431.7432,378.625,427.7432,374.625" style="stroke:#181818;stroke-width:1.0;"></polygon><line style="stroke:#181818;stroke-width:1.0;stroke-dasharray:2.0,2.0;" x1="425.7432" x2="648.9629" y1="374.625" y2="374.625"></line><text fill="#000000" font-family="sans-serif" font-size="13" lengthAdjust="spacing" textLength="65.6855" x="437.7432" y="369.5591">Order info</text><polygon fill="#181818" points="258.3828,399.7578,248.3828,403.7578,258.3828,407.7578,254.3828,403.7578" style="stroke:#181818;stroke-width:1.0;"></polygon><line style="stroke:#181818;stroke-width:1.0;stroke-dasharray:2.0,2.0;" x1="252.3828" x2="419.7432" y1="403.7578" y2="403.7578"></line><text fill="#000000" font-family="sans-serif" font-size="13" lengthAdjust="spacing" textLength="65.6855" x="264.3828" y="398.6919">Order info</text><polygon fill="#181818" points="46.5557,428.8906,36.5557,432.8906,46.5557,436.8906,42.5557,432.8906" style="stroke:#181818;stroke-width:1.0;"></polygon><line style="stroke:#181818;stroke-width:1.0;stroke-dasharray:2.0,2.0;" x1="40.5557" x2="246.3828" y1="432.8906" y2="432.8906"></line><text fill="#000000" font-family="sans-serif" font-size="13" lengthAdjust="spacing" textLength="126.0835" x="52.5557" y="427.8247">Show delivery form</text><polygon fill="#181818" points="235.3828,458.0234,245.3828,462.0234,235.3828,466.0234,239.3828,462.0234" style="stroke:#181818;stroke-width:1.0;"></polygon><line style="stroke:#181818;stroke-width:1.0;" x1="35.5557" x2="241.3828" y1="462.0234" y2="462.0234"></line><text fill="#000000" font-family="sans-serif" font-size="13" lengthAdjust="spacing" textLength="109.3193" x="42.5557" y="456.9575">Fill delivery form</text><polygon fill="#181818" points="408.7432,487.1563,418.7432,491.1563,408.7432,495.1563,412.7432,491.1563" style="stroke:#181818;stroke-width:1.0;"></polygon><line style="stroke:#181818;stroke-width:1.0;" x1="247.3828" x2="414.7432" y1="491.1563" y2="491.1563"></line><text fill="#000000" font-family="sans-serif" font-size="13" lengthAdjust="spacing" textLength="149.3604" x="254.3828" y="486.0903">Upload completed files</text><polygon fill="#181818" points="734.9741,516.2891,744.9741,520.2891,734.9741,524.2891,738.9741,520.2891" style="stroke:#181818;stroke-width:1.0;"></polygon><line style="stroke:#181818;stroke-width:1.0;" x1="420.7432" x2="740.9741" y1="520.2891" y2="520.2891"></line><text fill="#000000" font-family="sans-serif" font-size="13" lengthAdjust="spacing" textLength="76.2544" x="427.7432" y="515.2231">Upload files</text><polygon fill="#181818" points="431.7432,545.4219,421.7432,549.4219,431.7432,553.4219,427.7432,549.4219" style="stroke:#181818;stroke-width:1.0;"></polygon><line style="stroke:#181818;stroke-width:1.0;stroke-dasharray:2.0,2.0;" x1="425.7432" x2="745.9741" y1="549.4219" y2="549.4219"></line><text fill="#000000" font-family="sans-serif" font-size="13" lengthAdjust="spacing" textLength="59.395" x="437.7432" y="544.356">File URLs</text><polygon fill="#181818" points="258.3828,574.5547,248.3828,578.5547,258.3828,582.5547,254.3828,578.5547" style="stroke:#181818;stroke-width:1.0;"></polygon><line style="stroke:#181818;stroke-width:1.0;stroke-dasharray:2.0,2.0;" x1="252.3828" x2="419.7432" y1="578.5547" y2="578.5547"></line><text fill="#000000" font-family="sans-serif" font-size="13" lengthAdjust="spacing" textLength="59.395" x="264.3828" y="573.4888">File URLs</text><polygon fill="#181818" points="408.7432,603.6875,418.7432,607.6875,408.7432,611.6875,412.7432,607.6875" style="stroke:#181818;stroke-width:1.0;"></polygon><line style="stroke:#181818;stroke-width:1.0;" x1="247.3828" x2="414.7432" y1="607.6875" y2="607.6875"></line><text fill="#000000" font-family="sans-serif" font-size="13" lengthAdjust="spacing" textLength="144.2886" x="254.3828" y="602.6216">Add delivery message</text><polygon fill="#181818" points="408.7432,632.8203,418.7432,636.8203,408.7432,640.8203,412.7432,636.8203" style="stroke:#181818;stroke-width:1.0;"></polygon><line style="stroke:#181818;stroke-width:1.0;" x1="247.3828" x2="414.7432" y1="636.8203" y2="636.8203"></line><text fill="#000000" font-family="sans-serif" font-size="13" lengthAdjust="spacing" textLength="102.4512" x="254.3828" y="631.7544">Submit delivery</text><polygon fill="#181818" points="637.9629,661.9531,647.9629,665.9531,637.9629,669.9531,641.9629,665.9531" style="stroke:#181818;stroke-width:1.0;"></polygon><line style="stroke:#181818;stroke-width:1.0;" x1="420.7432" x2="643.9629" y1="665.9531" y2="665.9531"></line><text fill="#000000" font-family="sans-serif" font-size="13" lengthAdjust="spacing" textLength="205.2197" x="427.7432" y="660.8872">Update order status (delivered)</text><polygon fill="#181818" points="637.9629,691.0859,647.9629,695.0859,637.9629,699.0859,641.9629,695.0859" style="stroke:#181818;stroke-width:1.0;"></polygon><line style="stroke:#181818;stroke-width:1.0;" x1="420.7432" x2="643.9629" y1="695.0859" y2="695.0859"></line><text fill="#000000" font-family="sans-serif" font-size="13" lengthAdjust="spacing" textLength="145.9897" x="427.7432" y="690.02">Create delivery record</text><polygon fill="#181818" points="814.8501,720.2188,824.8501,724.2188,814.8501,728.2188,818.8501,724.2188" style="stroke:#181818;stroke-width:1.0;"></polygon><line style="stroke:#181818;stroke-width:1.0;" x1="420.7432" x2="820.8501" y1="724.2188" y2="724.2188"></line><text fill="#000000" font-family="sans-serif" font-size="13" lengthAdjust="spacing" textLength="167.0005" x="427.7432" y="719.1528">Send notification to client</text><polygon fill="#181818" points="431.7432,749.3516,421.7432,753.3516,431.7432,757.3516,427.7432,753.3516" style="stroke:#181818;stroke-width:1.0;"></polygon><line style="stroke:#181818;stroke-width:1.0;stroke-dasharray:2.0,2.0;" x1="425.7432" x2="825.8501" y1="753.3516" y2="753.3516"></line><text fill="#000000" font-family="sans-serif" font-size="13" lengthAdjust="spacing" textLength="140.499" x="437.7432" y="748.2856">Delivery confirmation</text><polygon fill="#181818" points="258.3828,778.4844,248.3828,782.4844,258.3828,786.4844,254.3828,782.4844" style="stroke:#181818;stroke-width:1.0;"></polygon><line style="stroke:#181818;stroke-width:1.0;stroke-dasharray:2.0,2.0;" x1="252.3828" x2="419.7432" y1="782.4844" y2="782.4844"></line><text fill="#000000" font-family="sans-serif" font-size="13" lengthAdjust="spacing" textLength="114.8862" x="264.3828" y="777.4185">Success message</text><polygon fill="#181818" points="814.8501,807.6172,824.8501,811.6172,814.8501,815.6172,818.8501,811.6172" style="stroke:#181818;stroke-width:1.0;"></polygon><line style="stroke:#181818;stroke-width:1.0;" x1="420.7432" x2="820.8501" y1="811.6172" y2="811.6172"></line><text fill="#000000" font-family="sans-serif" font-size="13" lengthAdjust="spacing" textLength="173.4814" x="427.7432" y="806.5513">Email notification received</text><!--SRC=[VLEnJiGm3Dtx5TQnmC2A40CIN8452Odgs4tY7XPfKYNfdVXxaZRfjIZS4YLwp_PxjkE-MVTeiODmUXRSe_QFABxtrWnQReqo5YuUwlhswQQgKFZmt3H-aAJz1j11kbUBSDWyMdDqP4T2kgy93Tb3mgVh6gxHuoSw6WdviQOyiw8cgC7zn5gyiyojugnokbPLKWlNzraNtC6hsRC6r18q7dYFdi0RC5QITLMcXOX9QGXu8GykPKgqX0LMbblcpUZrCk5R146nytEYbS85Fkk9yIdt7TJiUeK_49ppWNAnijqFfkCvTmqf4abmR8GanN52_rgSc98yiZhla7LhpZaSyRB3viiSivGVQ8tj_h4N5a7z8PPSxdfbK88mNQ_8auGsBD1oZek5Ej4dqX9QkOm0xDvVNTda2IvAUf3o9BmZv-8k5oSqV7RiPsvvChjUnasUXkCy-i71PGeXULKEsbgAGRCAIo8aM72dZpHkIVmlndFB0ZqR7LT5f6-MMAlUr3cdCBfbsur1vJurWn31_jo3GlcdBYpRkdxGIg62_0K0]--></g></svg>